<svg xmlns="http://www.w3.org/2000/svg" viewBox="0 0 17 22" shape-rendering="crispEdges" width="272" height="352"><rect x="0" y="0" width="17" height="22" fill="#14111d"/><rect x="3" y="1" width="1" height="1" fill="#e8d48b"/><rect x="7" y="1" width="1" height="1" fill="#e8d48b"/><rect x="8" y="1" width="1" height="1" fill="#e8d48b"/><rect x="12" y="1" width="1" height="1" fill="#e8d48b"/><rect x="3" y="2" width="1" height="1" fill="#c9a227"/><rect x="7" y="2" width="1" height="1" fill="#c9a227"/><rect x="8" y="2" width="1" height="1" fill="#c9a227"/><rect x="12" y="2" width="1" height="1" fill="#c9a227"/><rect x="2" y="3" width="1" height="1" fill="#c9a227"/><rect x="3" y="3" width="1" height="1" fill="#c9a227"/><rect x="4" y="3" width="1" height="1" fill="#c9a227"/><rect x="6" y="3" width="1" height="1" fill="#c9a227"/><rect x="7" y="3" width="1" height="1" fill="#c9a227"/><rect x="8" y="3" width="1" height="1" fill="#c9a227"/><rect x="9" y="3" width="1" height="1" fill="#c9a227"/><rect x="11" y="3" width="1" height="1" fill="#c9a227"/><rect x="12" y="3" width="1" height="1" fill="#c9a227"/><rect x="13" y="3" width="1" height="1" fill="#c9a227"/><rect x="2" y="4" width="1" height="1" fill="#c9a227"/><rect x="3" y="4" width="1" height="1" fill="#c9a227"/><rect x="4" y="4" width="1" height="1" fill="#c9a227"/><rect x="5" y="4" width="1" height="1" fill="#c9a227"/><rect x="6" y="4" width="1" height="1" fill="#c9a227"/><rect x="7" y="4" width="1" height="1" fill="#c9a227"/><rect x="8" y="4" width="1" height="1" fill="#c9a227"/><rect x="9" y="4" width="1" height="1" fill="#c9a227"/><rect x="10" y="4" width="1" height="1" fill="#c9a227"/><rect x="11" y="4" width="1" height="1" fill="#c9a227"/><rect x="12" y="4" width="1" height="1" fill="#c9a227"/><rect x="13" y="4" width="1" height="1" fill="#c9a227"/><rect x="2" y="5" width="1" height="1" fill="#c9a227"/><rect x="3" y="5" width="1" height="1" fill="#7a1e2b"/><rect x="4" y="5" width="1" height="1" fill="#c9a227"/><rect x="5" y="5" width="1" height="1" fill="#c9a227"/><rect x="6" y="5" width="1" height="1" fill="#c9a227"/><rect x="7" y="5" width="1" height="1" fill="#c9a227"/><rect x="8" y="5" width="1" height="1" fill="#c9a227"/><rect x="9" y="5" width="1" height="1" fill="#c9a227"/><rect x="10" y="5" width="1" height="1" fill="#c9a227"/><rect x="11" y="5" width="1" height="1" fill="#7a1e2b"/><rect x="12" y="5" width="1" height="1" fill="#c9a227"/><rect x="13" y="5" width="1" height="1" fill="#c9a227"/><rect x="2" y="6" width="1" height="1" fill="#c9a227"/><rect x="3" y="6" width="1" height="1" fill="#c9a227"/><rect x="4" y="6" width="1" height="1" fill="#c9a227"/><rect x="5" y="6" width="1" height="1" fill="#c9a227"/><rect x="6" y="6" width="1" height="1" fill="#c9a227"/><rect x="7" y="6" width="1" height="1" fill="#c9a227"/><rect x="8" y="6" width="1" height="1" fill="#c9a227"/><rect x="9" y="6" width="1" height="1" fill="#c9a227"/><rect x="10" y="6" width="1" height="1" fill="#c9a227"/><rect x="11" y="6" width="1" height="1" fill="#c9a227"/><rect x="12" y="6" width="1" height="1" fill="#c9a227"/><rect x="13" y="6" width="1" height="1" fill="#c9a227"/><rect x="2" y="7" width="1" height="1" fill="#e8d48b"/><rect x="3" y="7" width="1" height="1" fill="#e8d48b"/><rect x="4" y="7" width="1" height="1" fill="#e8d48b"/><rect x="5" y="7" width="1" height="1" fill="#e8d48b"/><rect x="6" y="7" width="1" height="1" fill="#e8d48b"/><rect x="7" y="7" width="1" height="1" fill="#e8d48b"/><rect x="8" y="7" width="1" height="1" fill="#e8d48b"/><rect x="9" y="7" width="1" height="1" fill="#e8d48b"/><rect x="10" y="7" width="1" height="1" fill="#e8d48b"/><rect x="11" y="7" width="1" height="1" fill="#e8d48b"/><rect x="12" y="7" width="1" height="1" fill="#e8d48b"/><rect x="13" y="7" width="1" height="1" fill="#e8d48b"/><rect x="3" y="8" width="1" height="1" fill="#0b0a12"/><rect x="4" y="8" width="1" height="1" fill="#e6b98a"/><rect x="5" y="8" width="1" height="1" fill="#e6b98a"/><rect x="6" y="8" width="1" height="1" fill="#e6b98a"/><rect x="7" y="8" width="1" height="1" fill="#e6b98a"/><rect x="8" y="8" width="1" height="1" fill="#e6b98a"/><rect x="9" y="8" width="1" height="1" fill="#e6b98a"/><rect x="10" y="8" width="1" height="1" fill="#e6b98a"/><rect x="11" y="8" width="1" height="1" fill="#e6b98a"/><rect x="12" y="8" width="1" height="1" fill="#0b0a12"/><rect x="3" y="9" width="1" height="1" fill="#e6b98a"/><rect x="4" y="9" width="1" height="1" fill="#0b0a12"/><rect x="5" y="9" width="1" height="1" fill="#0b0a12"/><rect x="6" y="9" width="1" height="1" fill="#e6b98a"/><rect x="7" y="9" width="1" height="1" fill="#e6b98a"/><rect x="8" y="9" width="1" height="1" fill="#e6b98a"/><rect x="9" y="9" width="1" height="1" fill="#e6b98a"/><rect x="10" y="9" width="1" height="1" fill="#0b0a12"/><rect x="11" y="9" width="1" height="1" fill="#0b0a12"/><rect x="12" y="9" width="1" height="1" fill="#e6b98a"/><rect x="3" y="10" width="1" height="1" fill="#e6b98a"/><rect x="4" y="10" width="1" height="1" fill="#e6b98a"/><rect x="5" y="10" width="1" height="1" fill="#e6b98a"/><rect x="6" y="10" width="1" height="1" fill="#e6b98a"/><rect x="7" y="10" width="1" height="1" fill="#e6b98a"/><rect x="8" y="10" width="1" height="1" fill="#e6b98a"/><rect x="9" y="10" width="1" height="1" fill="#e6b98a"/><rect x="10" y="10" width="1" height="1" fill="#e6b98a"/><rect x="11" y="10" width="1" height="1" fill="#e6b98a"/><rect x="3" y="11" width="1" height="1" fill="#0b0a12"/><rect x="4" y="11" width="1" height="1" fill="#e6b98a"/><rect x="5" y="11" width="1" height="1" fill="#e6b98a"/><rect x="6" y="11" width="1" height="1" fill="#d97b29"/><rect x="7" y="11" width="1" height="1" fill="#b8b2c4"/><rect x="8" y="11" width="1" height="1" fill="#b8b2c4"/><rect x="9" y="11" width="1" height="1" fill="#d97b29"/><rect x="10" y="11" width="1" height="1" fill="#e6b98a"/><rect x="11" y="11" width="1" height="1" fill="#e6b98a"/><rect x="12" y="11" width="1" height="1" fill="#0b0a12"/><rect x="3" y="12" width="1" height="1" fill="#0b0a12"/><rect x="4" y="12" width="1" height="1" fill="#e6b98a"/><rect x="5" y="12" width="1" height="1" fill="#e6b98a"/><rect x="6" y="12" width="1" height="1" fill="#b8b2c4"/><rect x="7" y="12" width="1" height="1" fill="#b8b2c4"/><rect x="8" y="12" width="1" height="1" fill="#b8b2c4"/><rect x="9" y="12" width="1" height="1" fill="#b8b2c4"/><rect x="10" y="12" width="1" height="1" fill="#e6b98a"/><rect x="11" y="12" width="1" height="1" fill="#e6b98a"/><rect x="12" y="12" width="1" height="1" fill="#0b0a12"/><rect x="3" y="13" width="1" height="1" fill="#0b0a12"/><rect x="4" y="13" width="1" height="1" fill="#b8b2c4"/><rect x="5" y="13" width="1" height="1" fill="#5f5870"/><rect x="6" y="13" width="1" height="1" fill="#5f5870"/><rect x="7" y="13" width="1" height="1" fill="#5f5870"/><rect x="8" y="13" width="1" height="1" fill="#5f5870"/><rect x="9" y="13" width="1" height="1" fill="#5f5870"/><rect x="10" y="13" width="1" height="1" fill="#5f5870"/><rect x="11" y="13" width="1" height="1" fill="#b8b2c4"/><rect x="12" y="13" width="1" height="1" fill="#0b0a12"/><rect x="4" y="14" width="1" height="1" fill="#b8b2c4"/><rect x="5" y="14" width="1" height="1" fill="#5f5870"/><rect x="6" y="14" width="1" height="1" fill="#5f5870"/><rect x="7" y="14" width="1" height="1" fill="#5f5870"/><rect x="8" y="14" width="1" height="1" fill="#5f5870"/><rect x="9" y="14" width="1" height="1" fill="#5f5870"/><rect x="10" y="14" width="1" height="1" fill="#5f5870"/><rect x="11" y="14" width="1" height="1" fill="#b8b2c4"/><rect x="4" y="15" width="1" height="1" fill="#0b0a12"/><rect x="5" y="15" width="1" height="1" fill="#b8b2c4"/><rect x="6" y="15" width="1" height="1" fill="#5f5870"/><rect x="7" y="15" width="1" height="1" fill="#5f5870"/><rect x="8" y="15" width="1" height="1" fill="#5f5870"/><rect x="9" y="15" width="1" height="1" fill="#5f5870"/><rect x="10" y="15" width="1" height="1" fill="#b8b2c4"/><rect x="11" y="15" width="1" height="1" fill="#0b0a12"/><rect x="2" y="16" width="1" height="1" fill="#7a1e2b"/><rect x="3" y="16" width="1" height="1" fill="#7a1e2b"/><rect x="6" y="16" width="1" height="1" fill="#0b0a12"/><rect x="7" y="16" width="1" height="1" fill="#b8b2c4"/><rect x="8" y="16" width="1" height="1" fill="#b8b2c4"/><rect x="9" y="16" width="1" height="1" fill="#b8b2c4"/><rect x="10" y="16" width="1" height="1" fill="#0b0a12"/><rect x="13" y="16" width="1" height="1" fill="#7a1e2b"/><rect x="14" y="16" width="1" height="1" fill="#7a1e2b"/><rect x="2" y="17" width="1" height="1" fill="#7a1e2b"/><rect x="3" y="17" width="1" height="1" fill="#7a1e2b"/><rect x="4" y="17" width="1" height="1" fill="#7a1e2b"/><rect x="5" y="17" width="1" height="1" fill="#7a1e2b"/><rect x="6" y="17" width="1" height="1" fill="#c9a227"/><rect x="7" y="17" width="1" height="1" fill="#c9a227"/><rect x="8" y="17" width="1" height="1" fill="#c9a227"/><rect x="9" y="17" width="1" height="1" fill="#c9a227"/><rect x="10" y="17" width="1" height="1" fill="#c9a227"/><rect x="11" y="17" width="1" height="1" fill="#7a1e2b"/><rect x="12" y="17" width="1" height="1" fill="#7a1e2b"/><rect x="13" y="17" width="1" height="1" fill="#7a1e2b"/><rect x="14" y="17" width="1" height="1" fill="#7a1e2b"/><rect x="1" y="18" width="1" height="1" fill="#7a1e2b"/><rect x="2" y="18" width="1" height="1" fill="#7a1e2b"/><rect x="3" y="18" width="1" height="1" fill="#7a1e2b"/><rect x="4" y="18" width="1" height="1" fill="#7a1e2b"/><rect x="5" y="18" width="1" height="1" fill="#7a1e2b"/><rect x="6" y="18" width="1" height="1" fill="#c9a227"/><rect x="7" y="18" width="1" height="1" fill="#e8d48b"/><rect x="8" y="18" width="1" height="1" fill="#c9a227"/><rect x="9" y="18" width="1" height="1" fill="#e8d48b"/><rect x="10" y="18" width="1" height="1" fill="#c9a227"/><rect x="11" y="18" width="1" height="1" fill="#7a1e2b"/><rect x="12" y="18" width="1" height="1" fill="#7a1e2b"/><rect x="13" y="18" width="1" height="1" fill="#7a1e2b"/><rect x="14" y="18" width="1" height="1" fill="#7a1e2b"/><rect x="15" y="18" width="1" height="1" fill="#7a1e2b"/><rect x="1" y="19" width="1" height="1" fill="#7a1e2b"/><rect x="2" y="19" width="1" height="1" fill="#7a1e2b"/><rect x="3" y="19" width="1" height="1" fill="#7a1e2b"/><rect x="4" y="19" width="1" height="1" fill="#7a1e2b"/><rect x="5" y="19" width="1" height="1" fill="#7a1e2b"/><rect x="6" y="19" width="1" height="1" fill="#c9a227"/><rect x="7" y="19" width="1" height="1" fill="#c9a227"/><rect x="8" y="19" width="1" height="1" fill="#c9a227"/><rect x="9" y="19" width="1" height="1" fill="#c9a227"/><rect x="10" y="19" width="1" height="1" fill="#c9a227"/><rect x="11" y="19" width="1" height="1" fill="#c9a227"/><rect x="12" y="19" width="1" height="1" fill="#7a1e2b"/><rect x="13" y="19" width="1" height="1" fill="#7a1e2b"/><rect x="14" y="19" width="1" height="1" fill="#7a1e2b"/><rect x="15" y="19" width="1" height="1" fill="#7a1e2b"/><rect x="1" y="20" width="1" height="1" fill="#0b0a12"/><rect x="2" y="20" width="1" height="1" fill="#7a1e2b"/><rect x="3" y="20" width="1" height="1" fill="#7a1e2b"/><rect x="4" y="20" width="1" height="1" fill="#7a1e2b"/><rect x="5" y="20" width="1" height="1" fill="#7a1e2b"/><rect x="6" y="20" width="1" height="1" fill="#7a1e2b"/><rect x="7" y="20" width="1" height="1" fill="#7a1e2b"/><rect x="8" y="20" width="1" height="1" fill="#7a1e2b"/><rect x="9" y="20" width="1" height="1" fill="#7a1e2b"/><rect x="10" y="20" width="1" height="1" fill="#7a1e2b"/><rect x="11" y="20" width="1" height="1" fill="#7a1e2b"/><rect x="12" y="20" width="1" height="1" fill="#7a1e2b"/><rect x="13" y="20" width="1" height="1" fill="#7a1e2b"/><rect x="14" y="20" width="1" height="1" fill="#7a1e2b"/><rect x="15" y="20" width="1" height="1" fill="#0b0a12"/><rect x="2" y="21" width="1" height="1" fill="#0b0a12"/><rect x="3" y="21" width="1" height="1" fill="#0b0a12"/><rect x="4" y="21" width="1" height="1" fill="#7a1e2b"/><rect x="5" y="21" width="1" height="1" fill="#7a1e2b"/><rect x="6" y="21" width="1" height="1" fill="#7a1e2b"/><rect x="7" y="21" width="1" height="1" fill="#7a1e2b"/><rect x="8" y="21" width="1" height="1" fill="#7a1e2b"/><rect x="9" y="21" width="1" height="1" fill="#7a1e2b"/><rect x="10" y="21" width="1" height="1" fill="#7a1e2b"/><rect x="11" y="21" width="1" height="1" fill="#7a1e2b"/><rect x="12" y="21" width="1" height="1" fill="#7a1e2b"/><rect x="13" y="21" width="1" height="1" fill="#0b0a12"/><rect x="14" y="21" width="1" height="1" fill="#0b0a12"/></svg>
